<?xml version="1.0" encoding="utf-8"?>
<!-- Generator: Adobe Illustrator 16.0.0, SVG Export Plug-In . SVG Version: 6.00 Build 0)  -->
<!DOCTYPE svg PUBLIC "-//W3C//DTD SVG 1.1//EN" "http://www.w3.org/Graphics/SVG/1.1/DTD/svg11.dtd">
<svg version="1.1" id="Layer_1" xmlns="http://www.w3.org/2000/svg" xmlns:xlink="http://www.w3.org/1999/xlink" x="0px" y="0px"
	 width="198px" height="198px" viewBox="0 0 198 198" enable-background="new 0 0 198 198" xml:space="preserve">
<path fill="#147C34" d="M98.654,20.581c-45.54,0-82.459,36.92-82.459,82.46c0,8.77,1.36,17.19,3.91,25.1v0.01
	c0.78,2.5,1.7,4.95,2.73,7.33c4.46,10.4,10.98,19.7,19.07,27.37l-3.91-31.32v-0.03c-0.07-0.2-0.15-0.39-0.22-0.57
	c-0.12-0.34-0.24-0.66-0.35-0.97c11.77-7.41,16.09-18.87,16.09-18.87s0.88,0.67,2.55,1.82c0.24,0.16,0.49,0.34,0.76,0.52
	c0.87,0.58,1.9,1.26,3.09,2.01c0.59,0.38,1.22,0.77,1.89,1.18c2.76,1.7,6.16,3.67,10.14,5.75c0.2,0.1,0.4,0.21,0.61,0.31
	c0.01,0.01,0.02,0.02,0.03,0.02c0.52,0.27,1.06,0.55,1.6,0.82c0.12,0.06,0.24,0.12,0.37,0.18c0.34,0.18,0.68,0.35,1.03,0.52
	c0.71,0.35,1.43,0.7,2.17,1.06c0.43,0.21,0.86,0.41,1.3,0.62c0.13,0.06,0.25,0.12,0.38,0.17c0.26,0.13,0.52,0.25,0.78,0.37
	c0.31,0.14,0.63,0.28,0.95,0.42c0.65,0.3,1.31,0.6,1.98,0.89c0.6,0.27,1.21,0.53,1.83,0.79c0.65,0.28,1.31,0.56,1.98,0.83
	c0.24,0.1,0.47,0.2,0.71,0.3c0.43,0.18,0.87,0.35,1.32,0.53h72.54l-0.22,1.76l-3.56,28.58c9.89-10.16,17.18-22.86,20.8-37.02
	c0.66-2.57,1.189-5.18,1.6-7.85v-0.01c0.63-4.12,0.971-8.32,0.971-12.62C181.115,57.5,144.185,20.581,98.654,20.581z
	 M145.604,136.471c-0.62,0-1.149,0.25-1.56,0.63l-0.01,0.01c0.29-0.06,0.58-0.12,0.87-0.18c0.279-0.06,0.56-0.13,0.85-0.19
	c0.189-0.04,0.39-0.08,0.58-0.13C146.104,136.511,145.854,136.471,145.604,136.471z"/>
<path fill="#FFFFFF" d="M99.685,134.081c2.16,0.71,4.37,1.39,6.641,2.03c13.319,3.76,26.26,3.32,37.699,1c0.011,0,0.011,0,0.011,0
	l0.01-0.01c0.57-0.11,1.149-0.24,1.71-0.36c0.189-0.04,0.39-0.08,0.58-0.13h0.01c2.88-0.66,5.65-1.44,8.3-2.29L99.685,134.081z
	 M101.715,85.19c-1.05-0.03-2.05-0.03-3.061-0.03c-1.02,0-2.009,0-3.06,0.03c-52.1,2.07-59.79,40.19-59.79,40.19
	s0.58,1.72,1.62,4.58c11.77-7.41,16.09-18.87,16.09-18.87s0.88,0.67,2.55,1.82c0.24,0.16,0.49,0.34,0.76,0.52
	c0.87,0.58,1.9,1.26,3.09,2.01c0.59,0.38,1.22,0.77,1.89,1.18c2.76,1.7,6.16,3.67,10.14,5.75c0.2,0.1,0.4,0.21,0.61,0.32
	c0.01,0,0.02,0,0.03,0.01c0.52,0.27,1.06,0.55,1.6,0.82c0.12,0.07,0.24,0.13,0.37,0.19c0.34,0.17,0.68,0.34,1.03,0.51
	c0.71,0.35,1.43,0.7,2.17,1.06c0.43,0.21,0.86,0.41,1.3,0.62c0.13,0.06,0.25,0.12,0.38,0.17c0.26,0.13,0.52,0.25,0.78,0.37
	c1.386,0.642,2.834,1.276,4.31,1.906c0.151,0.064,0.298,0.13,0.45,0.194c0.65,0.28,1.31,0.56,1.98,0.83c0.24,0.1,0.47,0.2,0.71,0.3
	c0.43,0.18,0.87,0.35,1.32,0.53h70.79c1.101-2.99,1.721-4.82,1.721-4.82S153.795,87.261,101.715,85.19z M150.015,153.891
	c-0.01,0.05-1.229,3.78-4.46,6.59c-3.41,2.98-7,4.45-7.04,4.45l0.18,1.4c0.16-0.02,4.28-1.28,7.721-4.9c0.1-0.11,0.21-0.2,0.31-0.31
	c0-0.01,0.021-0.03,0.03-0.04c1.47-2.94,2.88-6,4.229-9.01c0-0.02,0-0.02,0.011-0.03c0-0.01,0.02-0.01,0.02-0.03
	c0-0.03,0.01-0.05,0.01-0.08L150.015,153.891z M150.705,147.281c-0.011-0.02-0.021-0.03-0.03-0.05c0,0,0-0.01-0.01-0.01
	c-0.021-0.03-0.061-0.06-0.101-0.09c-0.05-0.02-0.1-0.04-0.17-0.06c-0.22-0.06-0.529-0.06-0.91-0.01c-0.09,0.01-0.18,0.02-0.27,0.03
	c-0.17,0.03-0.35,0.06-0.55,0.1c-1.16,0.23-2.66,0.68-4.05,1.15c-0.141,0.05-0.28,0.09-0.421,0.14c-0.06,0.02-0.119,0.04-0.17,0.06
	c-0.119,0.04-0.229,0.08-0.35,0.12c-1.07,0.37-2,0.71-2.56,0.93c-0.091,0.03-0.16,0.06-0.23,0.09c-0.07,0.02-0.12,0.04-0.17,0.06
	c-0.07,0.03-0.12,0.05-0.15,0.06c0.03-0.02,0.101-0.08,0.21-0.16c0.061-0.04,0.12-0.09,0.2-0.14c0.05-0.04,0.101-0.09,0.16-0.13
	c0.18-0.14,0.39-0.31,0.63-0.49c0.13-0.11,0.28-0.22,0.43-0.35c0.08-0.06,0.15-0.12,0.23-0.19c0.2-0.17,0.41-0.35,0.63-0.52
	c0.09-0.09,0.18-0.17,0.28-0.25c0.07-0.06,0.14-0.12,0.21-0.19c0.08-0.07,0.16-0.15,0.24-0.22c0.5-0.45,0.979-0.92,1.359-1.37
	c0.04-0.04,0.07-0.08,0.101-0.12c0.16-0.19,0.3-0.38,0.42-0.55c0.01-0.02,0.02-0.03,0.02-0.04c0.04-0.06,0.07-0.12,0.11-0.18
	c0.06-0.12,0.11-0.23,0.149-0.34c0.021-0.03,0.03-0.06,0.03-0.09c0.01-0.01,0.01-0.02,0.01-0.03c0-0.01,0-0.02,0-0.02v-0.04
	c0-0.01,0.011-0.03,0.011-0.04c0-0.01,0-0.02,0.01-0.03c0-0.06-0.01-0.12-0.021-0.17c-0.02-0.06-0.04-0.11-0.079-0.15
	c-0.03-0.03-0.08-0.06-0.131-0.09c-0.02-0.01-0.04-0.02-0.06-0.02c-0.15-0.06-0.35-0.07-0.6-0.05c-0.11,0-0.23,0.02-0.36,0.04
	c-0.09,0.01-0.18,0.03-0.28,0.05c-0.069,0.01-0.149,0.03-0.229,0.05c-0.011,0-0.03,0.01-0.051,0.01c-0.149,0.04-0.31,0.08-0.47,0.12
	c-0.53,0.15-1.12,0.34-1.71,0.56c-0.1,0.03-0.2,0.07-0.3,0.11c-0.3,0.11-0.61,0.23-0.9,0.34c-0.12,0.05-0.239,0.09-0.35,0.15
	c-0.4,0.16-0.78,0.32-1.12,0.46c-0.16,0.07-0.32,0.14-0.46,0.2c-0.49,0.22-0.85,0.38-0.99,0.44c-0.01,0.01-0.029,0.02-0.04,0.02
	c0.011-0.01,0.03-0.03,0.051-0.04c0.029-0.02,0.05-0.04,0.069-0.07c0.13-0.16,0.34-0.39,0.58-0.67c0.12-0.14,0.25-0.29,0.37-0.45
	c0.13-0.16,0.25-0.32,0.37-0.49c0.08-0.11,0.16-0.23,0.229-0.34c0.08-0.13,0.16-0.25,0.21-0.36c0.051-0.09,0.091-0.16,0.12-0.24
	c0.021-0.04,0.04-0.08,0.051-0.12c0.079-0.22,0.1-0.41,0.039-0.55c-0.34-0.73-4.8,1.93-5.109,2.12c0.13-0.2,1.33-1.89,1.1-2.4
	c-0.26-0.53-4.08,1-4.08,1s1.17-1.56,0.641-1.87c-0.5-0.33-3.891,1.07-3.891,1.07s-2.319-0.23-4.189,0.26
	c-5.45,1.4-10.29,9.35-10.87,10.35c-0.01,0.03-0.03,0.05-0.04,0.06c-0.021,0.02-0.021,0.03-0.021,0.03s5.931,8.28,13.23,8.28
	c6.79,0,12.39-7.15,13.15-8.16c0.239,0.33,0.359,0.52,0.359,0.52l-0.1,0.65c0,0,10.859-6.12,10.609-7.6
	C150.734,147.331,150.725,147.301,150.705,147.281z M83.795,153.641c-0.01-0.01-0.03-0.04-0.04-0.06c-0.58-1-5.42-8.95-10.88-10.35
	c-1.86-0.49-4.17-0.26-4.17-0.26s-3.4-1.4-3.9-1.07c-0.52,0.31,0.64,1.87,0.64,1.87s-3.84-1.53-4.08-1c-0.23,0.51,0.96,2.2,1.1,2.4
	c-0.31-0.19-4.77-2.85-5.11-2.12c-0.07,0.14-0.04,0.33,0.04,0.55c0.01,0.04,0.03,0.08,0.05,0.12c0.04,0.1,0.09,0.2,0.15,0.31
	c0.04,0.08,0.09,0.16,0.14,0.24c0.49,0.78,1.27,1.65,1.59,2c0.06,0.05,0.1,0.09,0.12,0.11c-0.01,0-0.03-0.01-0.04-0.02
	c-0.14-0.06-0.5-0.22-0.99-0.44c-0.14-0.06-0.3-0.13-0.46-0.2c-0.34-0.14-0.72-0.3-1.12-0.46c-0.11-0.06-0.23-0.1-0.35-0.15
	c-0.29-0.11-0.6-0.23-0.9-0.34c-0.1-0.04-0.2-0.08-0.3-0.11c-0.59-0.22-1.18-0.41-1.71-0.56c-0.16-0.04-0.32-0.08-0.47-0.12
	c-0.02,0-0.04-0.01-0.05-0.01c-0.08-0.02-0.15-0.04-0.23-0.05c-0.09-0.02-0.17-0.04-0.25-0.05c-0.14-0.02-0.27-0.04-0.39-0.04
	c-0.25-0.02-0.45-0.01-0.6,0.05c-0.02,0-0.04,0.01-0.06,0.02c-0.05,0.03-0.1,0.06-0.13,0.09c-0.04,0.04-0.07,0.09-0.08,0.15
	c-0.03,0.12-0.02,0.26,0.04,0.42c0.1,0.31,0.35,0.69,0.7,1.1c0.06,0.07,0.11,0.14,0.18,0.21c0.3,0.35,0.66,0.71,1.05,1.07
	c0.07,0.07,0.15,0.14,0.23,0.21c0.05,0.05,0.09,0.09,0.14,0.13c0.24,0.22,0.48,0.43,0.72,0.63c0.9,0.78,1.75,1.44,2.14,1.73
	c0.07,0.05,0.12,0.09,0.16,0.13c0.02,0.01,0.04,0.02,0.05,0.03c-0.02-0.01-0.07-0.03-0.14-0.06c-0.41-0.15-1.57-0.6-2.96-1.08
	c-0.12-0.04-0.23-0.08-0.35-0.12c-0.05-0.02-0.11-0.04-0.17-0.06c-0.14-0.05-0.28-0.09-0.42-0.14c-0.11-0.04-0.22-0.08-0.33-0.11
	c-0.25-0.09-0.51-0.17-0.77-0.25c-0.38-0.12-0.76-0.24-1.14-0.34c-0.23-0.07-0.46-0.13-0.68-0.19c-0.25-0.07-0.51-0.13-0.75-0.18
	c-0.21-0.05-0.42-0.09-0.61-0.12c-0.07-0.02-0.15-0.03-0.22-0.04c-0.13-0.02-0.24-0.04-0.35-0.05c-0.49-0.06-0.87-0.04-1.09,0.07
	c-0.04,0.02-0.08,0.05-0.11,0.08c-0.02,0.02-0.04,0.05-0.05,0.07c-0.02,0.02-0.02,0.05-0.03,0.08c-0.24,1.48,10.62,7.6,10.62,7.6
	l-0.11-0.65c0,0,0.12-0.19,0.37-0.52c0.76,1.01,6.36,8.16,13.15,8.16c7.3,0,13.22-8.28,13.22-8.28S83.805,153.661,83.795,153.641z
	 M51.695,160.48c-3.22-2.81-4.43-6.54-4.44-6.59l-0.96-1.84c1.38,3.06,2.82,6.16,4.33,9.14v0.01c0.09,0.08,0.15,0.15,0.23,0.23
	c3.44,3.62,7.54,4.88,7.72,4.9l0.18-1.4C58.715,164.931,55.125,163.46,51.695,160.48z"/>
<path fill="#FFFFFF" d="M154.645,134.32c-2.649,0.85-5.42,1.63-8.3,2.29h-0.01c-0.19,0.05-0.391,0.09-0.58,0.13
	c-0.561,0.12-1.14,0.25-1.71,0.36l-0.01,0.01c0,0,0,0-0.011,0c-11.439,2.32-24.38,2.76-37.699-1c-2.271-0.64-4.48-1.32-6.641-2.03
	h-0.02l-55.47,0.24l1.55,16.47c0.16,0.38,0.33,0.76,0.5,1.14l0.05,0.12l0.96,1.84c0.01,0.05,1.22,3.78,4.44,6.59
	c3.43,2.98,7.02,4.45,7.06,4.45l-0.18,1.4c-0.18-0.02-4.28-1.28-7.72-4.9c-0.08-0.08-0.14-0.15-0.23-0.23
	c1.22,2.41,2.46,4.76,3.74,6.94l27.38,2.46l11.06-4.94c0,0,4.12-0.46,6.87-0.46c2.76,0,6.88,0.46,6.88,0.46l11.07,4.94l25.2-2.27
	c1.33-2.26,2.63-4.69,3.899-7.21c-0.1,0.11-0.21,0.2-0.31,0.31c-3.44,3.62-7.561,4.88-7.721,4.9l-0.18-1.4
	c0.04,0,3.63-1.47,7.04-4.45c3.23-2.81,4.45-6.54,4.46-6.59l1.01-1.96c0,0.03-0.01,0.05-0.01,0.08c1.13-2.52,2.19-5.02,3.19-7.42
	v-0.03l0.97-10.24H154.645z M70.585,161.951c-6.79,0-12.39-7.15-13.15-8.16c-0.25,0.33-0.37,0.52-0.37,0.52l0.11,0.65
	c0,0-10.86-6.12-10.62-7.6c0.01-0.03,0.01-0.06,0.03-0.08c0.01-0.02,0.03-0.05,0.05-0.07c0.03-0.03,0.07-0.06,0.11-0.08
	c0.22-0.11,0.6-0.13,1.09-0.07c0.11,0.01,0.22,0.03,0.35,0.05c0.07,0.01,0.15,0.02,0.22,0.04c0.19,0.03,0.4,0.07,0.61,0.12
	c0.24,0.05,0.5,0.11,0.75,0.18c0.22,0.06,0.45,0.12,0.68,0.19c0.38,0.1,0.76,0.22,1.14,0.34c0.26,0.08,0.52,0.16,0.77,0.25
	c0.11,0.03,0.22,0.07,0.33,0.11c0.14,0.05,0.28,0.09,0.42,0.14c0.06,0.02,0.12,0.04,0.17,0.06c0.12,0.04,0.23,0.08,0.35,0.12
	c1.39,0.48,2.55,0.93,2.96,1.08c0.04,0.01,0.07,0.02,0.09,0.03c-0.04-0.03-0.09-0.07-0.16-0.13c-0.39-0.29-1.24-0.95-2.14-1.73
	c-0.24-0.2-0.48-0.41-0.72-0.63c-0.05-0.04-0.09-0.08-0.14-0.13c-0.08-0.07-0.16-0.14-0.23-0.21c-0.39-0.36-0.75-0.72-1.05-1.07
	c-0.07-0.07-0.12-0.14-0.18-0.21c-0.35-0.41-0.6-0.79-0.7-1.1c-0.06-0.16-0.07-0.3-0.04-0.42c0.01-0.06,0.04-0.11,0.08-0.15
	c0.03-0.03,0.08-0.06,0.13-0.09c0.02-0.01,0.04-0.02,0.06-0.02c0.15-0.06,0.35-0.07,0.6-0.05c0.12,0,0.25,0.02,0.39,0.04
	c0.08,0.01,0.16,0.03,0.25,0.05c0.08,0.01,0.15,0.03,0.23,0.05c0.01,0,0.03,0.01,0.05,0.01c0.15,0.04,0.31,0.08,0.47,0.12
	c0.53,0.15,1.12,0.34,1.71,0.56c0.1,0.03,0.2,0.07,0.3,0.11c0.3,0.11,0.61,0.23,0.9,0.34c0.12,0.05,0.24,0.09,0.35,0.15
	c0.4,0.16,0.78,0.32,1.12,0.46c0.16,0.07,0.32,0.14,0.46,0.2c0.49,0.22,0.85,0.38,0.99,0.44c-0.02-0.02-0.05-0.05-0.08-0.09
	c-0.32-0.35-1.1-1.22-1.59-2c-0.05-0.08-0.1-0.16-0.14-0.24c-0.06-0.11-0.11-0.21-0.15-0.31c-0.02-0.04-0.04-0.08-0.05-0.12
	c-0.08-0.22-0.11-0.41-0.04-0.55c0.34-0.73,4.8,1.93,5.11,2.12c-0.14-0.2-1.33-1.89-1.1-2.4c0.24-0.53,4.08,1,4.08,1
	s-1.16-1.56-0.64-1.87c0.5-0.33,3.9,1.07,3.9,1.07s2.31-0.23,4.17,0.26c5.46,1.4,10.3,9.35,10.88,10.35
	c0.01,0.02,0.03,0.05,0.04,0.06c0.01,0.02,0.01,0.03,0.01,0.03S77.885,161.951,70.585,161.951z M140.125,154.96l0.1-0.65
	c0,0-0.12-0.19-0.359-0.52c-0.761,1.01-6.36,8.16-13.15,8.16c-7.3,0-13.23-8.28-13.23-8.28s0-0.01,0.021-0.03
	c0.01-0.01,0.03-0.03,0.04-0.06c0.58-1,5.42-8.95,10.87-10.35c1.87-0.49,4.189-0.26,4.189-0.26s3.391-1.4,3.891-1.07
	c0.529,0.31-0.641,1.87-0.641,1.87s3.82-1.53,4.08-1c0.23,0.51-0.97,2.2-1.1,2.4c0.31-0.19,4.77-2.85,5.109-2.12
	c0.061,0.14,0.04,0.33-0.039,0.55c-0.011,0.04-0.03,0.08-0.051,0.12c-0.029,0.08-0.069,0.15-0.12,0.24
	c-0.05,0.11-0.13,0.23-0.21,0.36c-0.069,0.11-0.149,0.23-0.229,0.34c-0.12,0.17-0.24,0.33-0.37,0.49c-0.12,0.16-0.25,0.31-0.37,0.45
	c-0.24,0.28-0.45,0.51-0.58,0.67c-0.02,0.03-0.04,0.05-0.069,0.07c0,0.01,0,0.01-0.011,0.02c0.141-0.06,0.5-0.22,0.99-0.44
	c0.14-0.06,0.3-0.13,0.46-0.2c0.34-0.14,0.72-0.3,1.12-0.46c0.11-0.06,0.229-0.1,0.35-0.15c0.29-0.11,0.601-0.23,0.9-0.34
	c0.1-0.04,0.2-0.08,0.3-0.11c0.59-0.22,1.18-0.41,1.71-0.56c0.16-0.04,0.32-0.08,0.47-0.12c0.021,0,0.04-0.01,0.051-0.01
	c0.08-0.02,0.16-0.04,0.229-0.05c0.101-0.02,0.19-0.04,0.28-0.05c0.13-0.02,0.25-0.04,0.36-0.04c0.25-0.02,0.449-0.01,0.6,0.05
	c0.02,0,0.04,0.01,0.06,0.02c0.051,0.03,0.101,0.06,0.131,0.09c0.039,0.04,0.069,0.09,0.079,0.15c0.011,0.05,0.021,0.11,0.021,0.17
	c-0.01,0.01-0.01,0.02-0.01,0.03c0,0.01-0.011,0.03-0.011,0.04v0.04c0,0,0,0.01,0,0.02c0,0.01,0,0.02-0.01,0.03
	c0,0.03-0.01,0.06-0.03,0.09c-0.039,0.11-0.09,0.22-0.149,0.34c-0.04,0.06-0.07,0.12-0.11,0.18c0,0.01-0.01,0.02-0.02,0.04
	c-0.12,0.17-0.26,0.36-0.42,0.55c-0.03,0.04-0.061,0.08-0.101,0.12c-0.38,0.45-0.859,0.92-1.359,1.37
	c-0.08,0.07-0.16,0.15-0.24,0.22c-0.07,0.07-0.14,0.13-0.21,0.19c-0.101,0.08-0.19,0.16-0.28,0.25c-0.22,0.17-0.43,0.35-0.63,0.52
	c-0.08,0.07-0.16,0.13-0.23,0.19c-0.149,0.13-0.3,0.24-0.43,0.35c-0.24,0.18-0.45,0.35-0.63,0.49c-0.06,0.04-0.11,0.09-0.16,0.13
	c-0.08,0.05-0.14,0.1-0.2,0.14c-0.06,0.06-0.109,0.1-0.149,0.13c0.02-0.01,0.05-0.02,0.09-0.03c0.05-0.02,0.1-0.04,0.17-0.06
	c0.06-0.03,0.14-0.06,0.23-0.09c0.56-0.22,1.489-0.56,2.56-0.93c0.12-0.04,0.23-0.08,0.35-0.12c0.051-0.02,0.11-0.04,0.17-0.06
	c0.141-0.05,0.28-0.09,0.421-0.14c1.39-0.47,2.89-0.92,4.05-1.15c0.2-0.04,0.38-0.07,0.55-0.1c0.09-0.01,0.18-0.02,0.27-0.03
	c0.381-0.05,0.69-0.05,0.91,0.01c0.07,0.02,0.12,0.04,0.17,0.06c0.04,0.03,0.08,0.06,0.101,0.09c0.01,0,0.01,0.01,0.01,0.01
	c0.01,0.01,0.03,0.03,0.03,0.05c0.02,0.02,0.029,0.05,0.029,0.08C150.984,148.84,140.125,154.96,140.125,154.96z M37.775,130.931
	c0.08,0.2,0.15,0.4,0.22,0.6v-0.03C37.925,131.301,37.845,131.11,37.775,130.931z"/>
<path fill="#FFFFFF" d="M83.809,153.671c0,0-5.927,8.28-13.228,8.28c-6.784,0-12.385-7.151-13.147-8.158
	c-0.054-0.082-0.082-0.122-0.082-0.122s2.188-2.814,5.56-5.017c2.162-1.414,4.813-2.57,7.668-2.57c1.359,0,2.692,0.272,3.929,0.694
	c0.027,0.013,0.054,0.013,0.082,0.027c1.427,0.517,2.76,1.237,3.929,2.025c2.706,1.835,4.609,4.011,5.139,4.649
	c0.014,0,0.014,0,0.014,0.014c0.054,0.082,0.095,0.122,0.123,0.149C83.809,153.657,83.809,153.671,83.809,153.671z"/>
<path fill="#147C34" d="M146.348,136.609c-0.761,0.177-1.522,0.34-2.312,0.502c0.408-0.394,0.952-0.638,1.564-0.638
	C145.857,136.473,146.117,136.513,146.348,136.609z"/>
<path fill="#147C34" d="M185.785,118.741c0,0-2.62,2.02-7.24,4.78c-4.23,2.51-10.13,5.66-17.24,8.44l0.22-1.76h-72.54
	c-0.45-0.18-0.89-0.35-1.32-0.53c-0.24-0.1-0.47-0.2-0.71-0.3c-0.67-0.27-1.33-0.55-1.98-0.83c-0.62-0.26-1.23-0.52-1.83-0.79
	c-0.67-0.29-1.33-0.59-1.98-0.89c-0.58-0.26-1.16-0.53-1.73-0.79c-0.57-0.27-1.13-0.53-1.68-0.79c-0.74-0.36-1.46-0.71-2.17-1.06
	c-0.35-0.17-0.69-0.34-1.03-0.51v-0.01c-0.13-0.06-0.25-0.12-0.37-0.18c-0.54-0.27-1.08-0.55-1.6-0.82
	c-0.01-0.01-0.02-0.01-0.03-0.01v-0.01c-0.21-0.1-0.41-0.21-0.61-0.31c-3.98-2.08-7.38-4.05-10.14-5.75
	c-0.67-0.41-1.3-0.8-1.89-1.18c-1.19-0.75-2.22-1.43-3.09-2.01c-0.27-0.18-0.52-0.36-0.76-0.52c-1.67-1.15-2.55-1.82-2.55-1.82
	s-4.32,11.46-16.09,18.87c-3.97,2.5-8.8,4.54-14.59,5.52c-3.24,0.54-6.77,0.75-10.62,0.53c3.49-1.6,5.98-4.36,7.89-7.86v-0.01
	c8-14.74,5.8-42.56,26.07-52.26c25.07-12.02,68.41-28.02,99.03-18.85c6.8,36.3,25.479,52.56,34.939,58.63v0.01
	C183.575,117.871,185.785,118.741,185.785,118.741z"/>
<path fill="#FFFFFF" d="M139.944,153.671c0,0-0.026,0.041-0.081,0.122c-0.762,1.006-6.363,8.158-13.146,8.158
	c-7.301,0-13.229-8.28-13.229-8.28s0-0.014,0.014-0.027c0.028-0.027,0.067-0.068,0.122-0.149c0-0.014,0-0.014,0.015-0.014
	c0.529-0.639,2.434-2.814,5.138-4.649c1.17-0.789,2.488-1.509,3.916-2.012c0.041-0.027,0.068-0.027,0.096-0.041
	c1.237-0.421,2.556-0.694,3.93-0.694c2.868,0,5.506,1.156,7.667,2.57C137.755,150.857,139.944,153.671,139.944,153.671z"/>
<path d="M118.604,150.467c0-0.627,0.08-1.237,0.215-1.824c1.896-2.131,4.671-3.482,7.775-3.482c3.282,0,6.2,1.509,8.094,3.854
	c0.085,0.472,0.135,0.957,0.135,1.453c0,4.479-3.63,8.11-8.109,8.11C122.237,158.577,118.604,154.946,118.604,150.467
	L118.604,150.467z"/>
<path d="M150.739,147.362c0.245,1.482-10.618,7.601-10.618,7.601l0.108-0.653c0,0-0.122-0.19-0.366-0.517
	c-0.708-0.924-2.42-2.936-5.167-4.663c-1.794-1.128-4.024-2.135-6.702-2.638c-1.85-0.354-3.604-0.19-5.207,0.286
	c-0.027,0.013-0.055,0.013-0.096,0.041c-1.413,0.421-2.732,1.087-3.874,1.849c-2.773,1.822-4.663,4.133-5.18,4.813
	c-0.015,0-0.015,0-0.015,0.014c-0.026,0.027-0.04,0.054-0.081,0.082c0.584-0.993,5.425-8.946,10.877-10.347
	c1.862-0.489,4.188-0.258,4.188-0.258s3.385-1.4,3.889-1.074c0.529,0.313-0.641,1.877-0.641,1.877s3.821-1.537,4.079-1.006
	c0.23,0.516-0.966,2.203-1.101,2.406c0.312-0.19,4.771-2.855,5.111-2.121c0.354,0.734-1.876,3.114-2.094,3.332
	c0.395-0.178,7.791-3.617,8.131-2.244c0.34,1.387-5.085,5.412-5.412,5.656C141.073,149.605,150.494,145.921,150.739,147.362z"/>
<path fill="#FFFFFF" d="M124.253,150.51c0,1.163-0.944,2.108-2.106,2.108c-1.163,0-2.105-0.945-2.105-2.108
	c0-1.162,0.942-2.104,2.105-2.104C123.309,148.407,124.253,149.348,124.253,150.51L124.253,150.51z"/>
<path d="M83.754,153.576c-0.041-0.027-0.055-0.055-0.082-0.082c0-0.014,0-0.014-0.014-0.014c-0.516-0.68-2.406-2.991-5.18-4.813
	c-1.156-0.761-2.461-1.427-3.888-1.862c-0.027-0.014-0.055-0.014-0.082-0.027c-1.604-0.476-3.358-0.639-5.208-0.286
	c-2.692,0.503-4.921,1.522-6.716,2.651c-2.747,1.727-4.446,3.726-5.153,4.649c-0.245,0.327-0.367,0.517-0.367,0.517l0.109,0.653
	c0,0-10.863-6.118-10.618-7.601c0.245-1.441,9.667,2.243,10.169,2.434c-0.327-0.245-5.737-4.27-5.411-5.656
	c0.34-1.373,7.735,2.066,8.13,2.244c-0.218-0.218-2.447-2.597-2.094-3.332c0.34-0.734,4.799,1.931,5.112,2.121
	c-0.136-0.204-1.333-1.89-1.102-2.406c0.245-0.531,4.079,1.006,4.079,1.006s-1.156-1.564-0.639-1.877
	c0.503-0.326,3.902,1.074,3.902,1.074s2.311-0.231,4.174,0.258C78.33,144.63,83.17,152.583,83.754,153.576z"/>
<path d="M78.69,150.467c0-0.627-0.078-1.237-0.213-1.824c-1.896-2.131-4.672-3.482-7.776-3.482c-3.281,0-6.199,1.509-8.093,3.854
	c-0.085,0.472-0.137,0.957-0.137,1.453c0,4.479,3.63,8.11,8.11,8.11C75.061,158.577,78.69,154.946,78.69,150.467L78.69,150.467z"/>
<path fill="#FFFFFF" d="M68.072,150.512c0,1.163-0.944,2.106-2.105,2.106c-1.163,0-2.106-0.943-2.106-2.106
	c0-1.162,0.943-2.105,2.106-2.105C67.128,148.407,68.072,149.35,68.072,150.512L68.072,150.512z"/>
<g>
	<g>
		<path fill="#FFFFFF" d="M147.843,138.756c0,1.251-1.005,2.285-2.242,2.285c-1.251,0-2.258-1.033-2.258-2.285
			c0-0.639,0.26-1.223,0.681-1.645c0.013,0,0.013,0,0.013,0c0.408-0.394,0.952-0.638,1.564-0.638c0.257,0,0.517,0.04,0.747,0.136
			C147.218,136.922,147.843,137.764,147.843,138.756z"/>
		<path fill="#2D2D2D" d="M154.645,134.32l-54.96-0.24h-0.02l-55.47,0.24l1.55,16.47v0.03l0.01,0.02l1.56,16.66l7.05,0.64
			l27.38,2.46l11.06-4.94c0,0,4.12-0.46,6.87-0.46c2.76,0,6.88,0.46,6.88,0.46l11.07,4.94l25.2-2.27l6.979-0.63l2.24-0.2l0.16-1.78
			l2-21.13v-0.03l0.97-10.24H154.645z M144.035,137.11l0.01-0.01c0.41-0.38,0.939-0.63,1.56-0.63c0.25,0,0.5,0.04,0.73,0.14h0.01
			c0.87,0.31,1.5,1.15,1.5,2.15c0,1.25-1.01,2.28-2.24,2.28c-1.26,0-2.26-1.03-2.26-2.28c0-0.64,0.26-1.23,0.68-1.65
			C144.035,137.11,144.035,137.11,144.035,137.11z"/>
		<path fill="#303030" d="M147.843,138.756c0,1.251-1.005,2.285-2.242,2.285c-1.251,0-2.258-1.033-2.258-2.285
			c0-0.639,0.26-1.223,0.681-1.645c0.013,0,0.013,0,0.013,0c0.408-0.394,0.952-0.638,1.564-0.638c0.257,0,0.517,0.04,0.747,0.136
			C147.218,136.922,147.843,137.764,147.843,138.756z"/>
	</g>
	<path fill="#F73839" d="M147.843,138.756c0,1.251-1.005,2.285-2.242,2.285c-1.251,0-2.258-1.033-2.258-2.285
		c0-0.639,0.26-1.223,0.681-1.645c0.013,0,0.013,0,0.013,0c0.408-0.394,0.952-0.638,1.564-0.638c0.257,0,0.517,0.04,0.747,0.136
		C147.218,136.922,147.843,137.764,147.843,138.756z"/>
</g>
</svg>
